<?xml version="1.0" encoding="UTF-8" standalone="no"?>
<!-- Created with Inkscape (http://www.inkscape.org/) -->

<svg
   width="64mm"
   height="64mm"
   viewBox="0 0 64 64"
   version="1.1"
   id="svg1"
   xml:space="preserve"
   inkscape:version="1.4.2 (ebf0e940d0, 2025-05-08)"
   sodipodi:docname="icon.svg"
   inkscape:export-filename="icon32.png"
   inkscape:export-xdpi="12.7"
   inkscape:export-ydpi="12.7"
   xmlns:inkscape="http://www.inkscape.org/namespaces/inkscape"
   xmlns:sodipodi="http://sodipodi.sourceforge.net/DTD/sodipodi-0.dtd"
   xmlns:xlink="http://www.w3.org/1999/xlink"
   xmlns="http://www.w3.org/2000/svg"
   xmlns:svg="http://www.w3.org/2000/svg"><sodipodi:namedview
     id="namedview1"
     pagecolor="#ffffff"
     bordercolor="#999999"
     borderopacity="1"
     inkscape:showpageshadow="2"
     inkscape:pageopacity="0"
     inkscape:pagecheckerboard="0"
     inkscape:deskcolor="#d1d1d1"
     inkscape:document-units="mm"
     showgrid="false"
     showguides="false"
     inkscape:zoom="0.63505374"
     inkscape:cx="-175.57569"
     inkscape:cy="203.91975"
     inkscape:window-width="1864"
     inkscape:window-height="1030"
     inkscape:window-x="0"
     inkscape:window-y="0"
     inkscape:window-maximized="0"
     inkscape:current-layer="layer1" /><defs
     id="defs1"><linearGradient
       id="linearGradient157"
       inkscape:collect="always"><stop
         style="stop-color:#ffffff;stop-opacity:1;"
         offset="0"
         id="stop157" /><stop
         style="stop-color:#ffffff;stop-opacity:0;"
         offset="1"
         id="stop158" /></linearGradient><linearGradient
       id="linearGradient155"
       inkscape:collect="always"><stop
         style="stop-color:#ffffff;stop-opacity:1;"
         offset="0"
         id="stop155" /><stop
         style="stop-color:#ffffff;stop-opacity:0;"
         offset="1"
         id="stop156" /></linearGradient><inkscape:path-effect
       effect="perspective-envelope"
       up_left_point="6.9634862,5.6973925"
       up_right_point="21.400579,4.9798212"
       down_left_point="9.4381687,31.772058"
       down_right_point="19.814529,31.798052"
       id="path-effect146"
       is_visible="true"
       lpeversion="1"
       deform_type="perspective"
       horizontal_mirror="false"
       vertical_mirror="false"
       overflow_perspective="false" /><linearGradient
       inkscape:collect="always"
       xlink:href="#linearGradient155"
       id="linearGradient156"
       x1="16.647818"
       y1="16.618673"
       x2="40.219261"
       y2="41.850788"
       gradientUnits="userSpaceOnUse"
       gradientTransform="matrix(1.357937,0,0,1.357937,-6.5375779,-6.5271469)" /><linearGradient
       inkscape:collect="always"
       xlink:href="#linearGradient157"
       id="linearGradient158"
       x1="6.7731428"
       y1="6.2905369"
       x2="53.787884"
       y2="54.531921"
       gradientUnits="userSpaceOnUse" /></defs><g
     inkscape:label="Layer 1"
     inkscape:groupmode="layer"
     id="layer1"><path
       id="rect150"
       style="fill:#ffcc00;stroke:none;stroke-width:2.70629;stroke-linecap:round;stroke-linejoin:round;stroke-dasharray:none"
       d="m 22.584484,18.235461 c -2.39297,0 -4.319881,1.926166 -4.319881,4.319136 v 32.489649 c 0,1.858701 1.162294,3.436243 2.802667,4.047885 a 34.032978,34.032978 0 0 0 4.279641,0.271994 h 0.02683 A 34.032978,34.032978 0 0 0 59.393267,25.331184 34.032978,34.032978 0 0 0 59.121271,21.03813 c -0.611646,-1.640366 -2.188445,-2.802669 -4.047139,-2.802669 z" /><g
       id="g150"
       transform="matrix(1.4420356,0,0,1.4420356,343.14365,91.490885)"><circle
         style="fill:none;stroke:#000000;stroke-width:1.85208;stroke-linecap:round;stroke-linejoin:round;stroke-dasharray:none"
         id="path148"
         cx="-213.00183"
         cy="-38.510036"
         r="8.8660116" /><ellipse
         style="fill:none;stroke:#000000;stroke-width:1.85208;stroke-linecap:round;stroke-linejoin:round;stroke-dasharray:none"
         id="path149"
         cx="-213.00183"
         cy="-38.510036"
         rx="4.3951702"
         ry="8.8377876" /><path
         style="fill:none;stroke:#000000;stroke-width:1.85208;stroke-linecap:round;stroke-linejoin:round;stroke-dasharray:none"
         d="m -221.86784,-38.510035 h 17.73202"
         id="path150" /></g><path
       style="fill:none;stroke:#ffffff;stroke-width:1;stroke-linecap:square;stroke-linejoin:round;stroke-dasharray:none"
       d="m 14.314098,19.925846 c 0,0 3.357881,-1.373555 5.475359,-5.414299"
       id="path151"
       sodipodi:nodetypes="cc" /><path
       style="opacity:1;fill:url(#linearGradient156);fill-opacity:1;stroke:none;stroke-width:1.02165;stroke-linecap:square;stroke-linejoin:round;stroke-dasharray:none"
       d="m 18.264603,30.775521 c 0,0 1.91401,10.081069 2.627813,23.743356 0,0 1.475478,-22.506574 4.992192,-22.647509 0,0 8.865524,2.796527 15.767849,9.801569 0,0 -10.030741,-13.244135 -8.583961,-16.498412 0,0 1.50935,-3.482655 15.115329,-4.567188 L 58.232324,19.806369 31.873217,18.235461 h -7.76251 l -5.846104,5.865115 z"
       id="path154"
       sodipodi:nodetypes="cccccsccccc" /><path
       style="opacity:0.505355;fill:url(#linearGradient158);stroke:none;stroke-width:0.814764;stroke-linecap:square;stroke-linejoin:round;stroke-dasharray:none"
       d="m 18.264603,25.033931 11.094448,26.723203 c 0,0 -8.060682,-24.220501 -4.640121,-27.175148 3.420561,-2.954647 15.252667,1.464541 29.068955,4.675133 L 24.663209,18.235461 Z"
       id="path156"
       sodipodi:nodetypes="cczccc" /><g
       id="g155"><g
         id="g153"
         transform="matrix(1.2047667,0,0,1.2047667,-2.3108428,-2.3046424)"><g
           id="g154"
           transform="matrix(1.0959559,-1.0959559,1.0959559,1.0959559,-14.30643,9.9280634)"><rect
             style="fill:#666666;stroke:none;stroke-width:0.986342;stroke-linecap:square;stroke-linejoin:round;stroke-dasharray:none;fill-opacity:1"
             id="rect152"
             width="3.2980039"
             height="9.99578"
             x="9.4293613"
             y="5.6965542"
             ry="0" /><rect
             style="fill:#666666;stroke:none;stroke-width:0.462241;stroke-linecap:square;stroke-linejoin:round;stroke-dasharray:none"
             id="rect152-9"
             width="5.7335963"
             height="1.2627643"
             x="8.1951208"
             y="18.460218"
             ry="0" /><ellipse
             style="fill:#666666;stroke:none;stroke-width:0.993955;stroke-linecap:square;stroke-linejoin:round;stroke-dasharray:none"
             id="path152-4"
             cx="11.061919"
             cy="19.722982"
             rx="2.8667984"
             ry="1.2627653" /><path
             id="rect153"
             style="fill:#666666;fill-opacity:1;stroke-width:0.61752;stroke-linecap:square;stroke-linejoin:round"
             d="m 9.429361,15.683909 h 3.298004 l 1.213154,2.776309 -1.50214,0.255726 -2.5381277,0.125463 -1.7051309,-0.381189 z"
             sodipodi:nodetypes="ccccccc" /><path
             id="path153"
             style="fill:none;stroke:#ffffff;stroke-width:0.387118;stroke-linecap:square;stroke-linejoin:round;stroke-dasharray:none"
             d="m 12.941848,15.336968 c 0,0.313394 -0.838184,0.56745 -1.872137,0.56745 -1.033954,0 -1.8721385,-0.254056 -1.8721382,-0.56745"
             sodipodi:nodetypes="csc" /><path
             id="path153-3"
             style="fill:none;stroke:#ffffff;stroke-width:0.387118;stroke-linecap:square;stroke-linejoin:round;stroke-dasharray:none"
             d="m 14.091918,17.898653 c 0,0.506232 -1.353934,0.916613 -3.024097,0.916613 -1.6701645,0 -3.0240998,-0.410381 -3.0240993,-0.916613"
             sodipodi:nodetypes="csc" /><ellipse
             style="fill:#666666;stroke:none;stroke-width:0.500394;stroke-linecap:square;stroke-linejoin:round;stroke-dasharray:none;fill-opacity:1"
             id="path152"
             cx="11.078363"
             cy="5.6965542"
             rx="1.649002"
             ry="0.55640733" /></g></g></g></g></svg>
